<svg width="24" height="24" viewBox="0 0 24 24" fill="none" xmlns="http://www.w3.org/2000/svg">
<path fill-rule="evenodd" clip-rule="evenodd" d="M12 2.40002C11.6818 2.40002 11.3765 2.52645 11.1515 2.7515C10.9265 2.97654 10.8 3.28176 10.8 3.60002V4.80002C10.8 5.11828 10.9265 5.42351 11.1515 5.64855C11.3765 5.8736 11.6818 6.00002 12 6.00002C12.3183 6.00002 12.6235 5.8736 12.8486 5.64855C13.0736 5.42351 13.2 5.11828 13.2 4.80002V3.60002C13.2 3.28176 13.0736 2.97654 12.8486 2.7515C12.6235 2.52645 12.3183 2.40002 12 2.40002ZM4.80002 4.80002H8.40002C8.40002 5.7548 8.77931 6.67048 9.45444 7.34561C10.1296 8.02074 11.0452 8.40003 12 8.40003C12.9548 8.40003 13.8705 8.02074 14.5456 7.34561C15.2207 6.67048 15.6 5.7548 15.6 4.80002H19.2C19.8365 4.80002 20.447 5.05288 20.8971 5.50297C21.3472 5.95306 21.6 6.56351 21.6 7.20003V18C21.6 18.6365 21.3472 19.247 20.8971 19.6971C20.447 20.1472 19.8365 20.4 19.2 20.4H4.80002C4.1635 20.4 3.55306 20.1472 3.10297 19.6971C2.65288 19.247 2.40002 18.6365 2.40002 18V7.20003C2.40002 6.56351 2.65288 5.95306 3.10297 5.50297C3.55306 5.05288 4.1635 4.80002 4.80002 4.80002ZM7.80002 13.2C8.27741 13.2 8.73525 13.0104 9.07282 12.6728C9.41038 12.3353 9.60002 11.8774 9.60002 11.4C9.60002 10.9226 9.41038 10.4648 9.07282 10.1272C8.73525 9.78967 8.27741 9.60003 7.80002 9.60003C7.32263 9.60003 6.8648 9.78967 6.52723 10.1272C6.18967 10.4648 6.00002 10.9226 6.00002 11.4C6.00002 11.8774 6.18967 12.3353 6.52723 12.6728C6.8648 13.0104 7.32263 13.2 7.80002 13.2ZM10.74 18C10.8285 17.5643 10.819 17.1144 10.7123 16.6828C10.6055 16.2512 10.4042 15.8487 10.1228 15.5045C9.84148 15.1602 9.48711 14.8828 9.08539 14.6923C8.68367 14.5019 8.24462 14.403 7.80002 14.403C7.35542 14.403 6.91638 14.5019 6.51466 14.6923C6.11293 14.8828 5.75857 15.1602 5.4772 15.5045C5.19584 15.8487 4.9945 16.2512 4.88776 16.6828C4.78103 17.1144 4.77155 17.5643 4.86002 18H10.74ZM14.4 10.8C14.0818 10.8 13.7765 10.9265 13.5515 11.1515C13.3265 11.3765 13.2 11.6818 13.2 12C13.2 12.3183 13.3265 12.6235 13.5515 12.8486C13.7765 13.0736 14.0818 13.2 14.4 13.2H18C18.3183 13.2 18.6235 13.0736 18.8486 12.8486C19.0736 12.6235 19.2 12.3183 19.2 12C19.2 11.6818 19.0736 11.3765 18.8486 11.1515C18.6235 10.9265 18.3183 10.8 18 10.8H14.4ZM13.2 15.6C13.2 15.2818 13.3265 14.9765 13.5515 14.7515C13.7765 14.5265 14.0818 14.4 14.4 14.4H16.8C17.1183 14.4 17.4235 14.5265 17.6486 14.7515C17.8736 14.9765 18 15.2818 18 15.6C18 15.9183 17.8736 16.2235 17.6486 16.4486C17.4235 16.6736 17.1183 16.8 16.8 16.8H14.4C14.0818 16.8 13.7765 16.6736 13.5515 16.4486C13.3265 16.2235 13.2 15.9183 13.2 15.6Z" fill="#687684"/>
</svg>
