<svg width="76" height="46" viewBox="0 0 76 46" fill="none" xmlns="http://www.w3.org/2000/svg">
<rect width="76" height="46" rx="10" fill="#7A44EF"/>
<path d="M48.22 19L35.34 11.6133C34.6431 11.2109 33.852 11.0001 33.0472 11.0023C32.2424 11.0045 31.4525 11.2197 30.7578 11.6259C30.0631 12.0322 29.4882 12.6151 29.0917 13.3155C28.6952 14.0158 28.491 14.8086 28.5 15.6133V30.44C28.5 31.6494 28.9805 32.8093 29.8356 33.6644C30.6908 34.5196 31.8507 35 33.06 35C33.8606 34.9987 34.6468 34.7872 35.34 34.3867L48.22 27C48.9121 26.5995 49.4867 26.024 49.8862 25.3313C50.2856 24.6385 50.4959 23.853 50.4959 23.0533C50.4959 22.2537 50.2856 21.4681 49.8862 20.7754C49.4867 20.0827 48.9121 19.5072 48.22 19.1067V19Z" fill="white"/>
</svg>
